<?xml version="1.0" encoding="UTF-8" standalone="no"?>
<!DOCTYPE svg PUBLIC "-//W3C//DTD SVG 1.1//EN"
 "http://www.w3.org/Graphics/SVG/1.1/DTD/svg11.dtd">
<!-- Generated by graphviz version 2.40.1 (20161225.0304)
 -->
<!-- Title: dependencies Pages: 1 -->
<svg width="504pt" height="284pt"
 viewBox="0.00 0.00 504.00 284.00" xmlns="http://www.w3.org/2000/svg" xmlns:xlink="http://www.w3.org/1999/xlink">
<g id="graph0" class="graph" transform="scale(1 1) rotate(0) translate(4 280)">
<title>dependencies</title>
<polygon fill="#ffffff" stroke="transparent" points="-4,4 -4,-280 500,-280 500,4 -4,4"/>
<text text-anchor="start" x="227.0091" y="-42.4" font-family="sans-serif" font-weight="bold" font-size="14.00" fill="#000000">Legend</text>
<polygon fill="#ffffb3" stroke="transparent" points="14,-10 14,-30 34,-30 34,-10 14,-10"/>
<text text-anchor="start" x="37.629" y="-15.4" font-family="sans-serif" font-size="14.00" fill="#000000"> &#160;Declarations</text>
<polygon fill="#8dd3c7" stroke="transparent" points="127,-10 127,-30 147,-30 147,-10 127,-10"/>
<text text-anchor="start" x="150.7251" y="-15.4" font-family="sans-serif" font-size="14.00" fill="#000000"> &#160;Module</text>
<polygon fill="#80b1d3" stroke="transparent" points="213,-10 213,-30 233,-30 233,-10 213,-10"/>
<text text-anchor="start" x="236.7812" y="-15.4" font-family="sans-serif" font-size="14.00" fill="#000000"> &#160;Bootstrap</text>
<polygon fill="#fdb462" stroke="transparent" points="310,-10 310,-30 330,-30 330,-10 310,-10"/>
<text text-anchor="start" x="333.6732" y="-15.4" font-family="sans-serif" font-size="14.00" fill="#000000"> &#160;Providers</text>
<polygon fill="#fb8072" stroke="transparent" points="406,-10 406,-30 426,-30 426,-10 406,-10"/>
<text text-anchor="start" x="429.7258" y="-15.4" font-family="sans-serif" font-size="14.00" fill="#000000"> &#160;Exports</text>
<g id="clust1" class="cluster">
<title>cluster_CoreModule</title>
<polygon fill="none" stroke="#000000" stroke-dasharray="1,5" points="37.5,-70 37.5,-268 458.5,-268 458.5,-70 37.5,-70"/>
</g>
<g id="clust2" class="cluster">
<title>cluster_CoreModule_declarations</title>
<polygon fill="none" stroke="#000000" points="328.5,-78 328.5,-130 450.5,-130 450.5,-78 328.5,-78"/>
</g>
<g id="clust4" class="cluster">
<title>cluster_CoreModule_imports</title>
<polygon fill="none" stroke="#000000" points="45.5,-78 45.5,-130 320.5,-130 320.5,-78 45.5,-78"/>
</g>
<g id="clust5" class="cluster">
<title>cluster_CoreModule_exports</title>
<polygon fill="none" stroke="#000000" points="107.5,-208 107.5,-260 389.5,-260 389.5,-208 107.5,-208"/>
</g>
<!-- NewFocusInput -->
<g id="node1" class="node">
<title>NewFocusInput</title>
<polygon fill="#ffffb3" stroke="#000000" points="442.4216,-122 336.5784,-122 336.5784,-86 442.4216,-86 442.4216,-122"/>
<text text-anchor="middle" x="389.5" y="-99.8" font-family="Times,serif" font-size="14.00" fill="#000000">NewFocusInput</text>
</g>
<!-- CoreModule -->
<g id="node2" class="node">
<title>CoreModule</title>
<polygon fill="#8dd3c7" stroke="#000000" points="291.7619,-187 288.7619,-191 267.7619,-191 264.7619,-187 205.2381,-187 205.2381,-151 291.7619,-151 291.7619,-187"/>
<text text-anchor="middle" x="248.5" y="-164.8" font-family="Times,serif" font-size="14.00" fill="#000000">CoreModule</text>
</g>
<!-- NewFocusInput&#45;&gt;CoreModule -->
<g id="edge1" class="edge">
<title>NewFocusInput&#45;&gt;CoreModule</title>
<path fill="none" stroke="#000000" d="M359.2134,-122.1061C359.2134,-141.3391 359.2134,-169 359.2134,-169 359.2134,-169 301.9391,-169 301.9391,-169"/>
<polygon fill="#000000" stroke="#000000" points="301.9391,-165.5001 291.9391,-169 301.9391,-172.5001 301.9391,-165.5001"/>
</g>
<!-- AppRoutingModule  -->
<g id="node5" class="node">
<title>AppRoutingModule </title>
<polygon fill="#fb8072" stroke="#000000" points="381.7745,-252 249.2255,-252 249.2255,-216 381.7745,-216 381.7745,-252"/>
<text text-anchor="middle" x="315.5" y="-229.8" font-family="Times,serif" font-size="14.00" fill="#000000">AppRoutingModule </text>
</g>
<!-- CoreModule&#45;&gt;AppRoutingModule  -->
<g id="edge4" class="edge">
<title>CoreModule&#45;&gt;AppRoutingModule </title>
<path fill="none" stroke="#000000" stroke-dasharray="5,2" d="M270.6219,-187.1061C270.6219,-187.1061 270.6219,-205.991 270.6219,-205.991"/>
<polygon fill="#000000" stroke="#000000" points="267.1219,-205.9909 270.6219,-215.991 274.1219,-205.991 267.1219,-205.9909"/>
</g>
<!-- MaterialsModule  -->
<g id="node6" class="node">
<title>MaterialsModule </title>
<polygon fill="#fb8072" stroke="#000000" points="231.4152,-252 115.5848,-252 115.5848,-216 231.4152,-216 231.4152,-252"/>
<text text-anchor="middle" x="173.5" y="-229.8" font-family="Times,serif" font-size="14.00" fill="#000000">MaterialsModule </text>
</g>
<!-- CoreModule&#45;&gt;MaterialsModule  -->
<g id="edge5" class="edge">
<title>CoreModule&#45;&gt;MaterialsModule </title>
<path fill="none" stroke="#000000" stroke-dasharray="5,2" d="M218.2884,-187.1061C218.2884,-187.1061 218.2884,-205.991 218.2884,-205.991"/>
<polygon fill="#000000" stroke="#000000" points="214.7885,-205.9909 218.2884,-215.991 221.7885,-205.991 214.7885,-205.9909"/>
</g>
<!-- AppRoutingModule -->
<g id="node3" class="node">
<title>AppRoutingModule</title>
<polygon fill="#8dd3c7" stroke="#000000" points="312.7744,-122 309.7744,-126 288.7744,-126 285.7744,-122 184.2256,-122 184.2256,-86 312.7744,-86 312.7744,-122"/>
<text text-anchor="middle" x="248.5" y="-99.8" font-family="Times,serif" font-size="14.00" fill="#000000">AppRoutingModule</text>
</g>
<!-- AppRoutingModule&#45;&gt;CoreModule -->
<g id="edge2" class="edge">
<title>AppRoutingModule&#45;&gt;CoreModule</title>
<path fill="none" stroke="#000000" d="M248.5,-122.1061C248.5,-122.1061 248.5,-140.991 248.5,-140.991"/>
<polygon fill="#000000" stroke="#000000" points="245.0001,-140.9909 248.5,-150.991 252.0001,-140.991 245.0001,-140.9909"/>
</g>
<!-- MaterialsModule -->
<g id="node4" class="node">
<title>MaterialsModule</title>
<polygon fill="#8dd3c7" stroke="#000000" points="165.916,-122 162.916,-126 141.916,-126 138.916,-122 53.084,-122 53.084,-86 165.916,-86 165.916,-122"/>
<text text-anchor="middle" x="109.5" y="-99.8" font-family="Times,serif" font-size="14.00" fill="#000000">MaterialsModule</text>
</g>
<!-- MaterialsModule&#45;&gt;CoreModule -->
<g id="edge3" class="edge">
<title>MaterialsModule&#45;&gt;CoreModule</title>
<path fill="none" stroke="#000000" d="M140.625,-122.1061C140.625,-141.3391 140.625,-169 140.625,-169 140.625,-169 194.9341,-169 194.9341,-169"/>
<polygon fill="#000000" stroke="#000000" points="194.9341,-172.5001 204.9341,-169 194.934,-165.5001 194.9341,-172.5001"/>
</g>
</g>
</svg>
