<?xml version="1.0" encoding="UTF-8" standalone="no"?>
<!DOCTYPE svg PUBLIC "-//W3C//DTD SVG 1.1//EN"
 "http://www.w3.org/Graphics/SVG/1.1/DTD/svg11.dtd">
<!-- Generated by graphviz version 2.40.1 (20161225.0304)
 -->
<!-- Title: dependencies Pages: 1 -->
<svg width="3757pt" height="284pt"
 viewBox="0.00 0.00 3757.00 284.00" xmlns="http://www.w3.org/2000/svg" xmlns:xlink="http://www.w3.org/1999/xlink">
<g id="graph0" class="graph" transform="scale(1 1) rotate(0) translate(4 280)">
<title>dependencies</title>
<polygon fill="#ffffff" stroke="transparent" points="-4,4 -4,-280 3753,-280 3753,4 -4,4"/>
<text text-anchor="start" x="1853.5091" y="-42.4" font-family="sans-serif" font-weight="bold" font-size="14.00" fill="#000000">Legend</text>
<polygon fill="#ffffb3" stroke="transparent" points="1640.5,-10 1640.5,-30 1660.5,-30 1660.5,-10 1640.5,-10"/>
<text text-anchor="start" x="1664.129" y="-15.4" font-family="sans-serif" font-size="14.00" fill="#000000"> &#160;Declarations</text>
<polygon fill="#8dd3c7" stroke="transparent" points="1753.5,-10 1753.5,-30 1773.5,-30 1773.5,-10 1753.5,-10"/>
<text text-anchor="start" x="1777.2251" y="-15.4" font-family="sans-serif" font-size="14.00" fill="#000000"> &#160;Module</text>
<polygon fill="#80b1d3" stroke="transparent" points="1839.5,-10 1839.5,-30 1859.5,-30 1859.5,-10 1839.5,-10"/>
<text text-anchor="start" x="1863.2812" y="-15.4" font-family="sans-serif" font-size="14.00" fill="#000000"> &#160;Bootstrap</text>
<polygon fill="#fdb462" stroke="transparent" points="1936.5,-10 1936.5,-30 1956.5,-30 1956.5,-10 1936.5,-10"/>
<text text-anchor="start" x="1960.1732" y="-15.4" font-family="sans-serif" font-size="14.00" fill="#000000"> &#160;Providers</text>
<polygon fill="#fb8072" stroke="transparent" points="2032.5,-10 2032.5,-30 2052.5,-30 2052.5,-10 2032.5,-10"/>
<text text-anchor="start" x="2056.2258" y="-15.4" font-family="sans-serif" font-size="14.00" fill="#000000"> &#160;Exports</text>
<g id="clust1" class="cluster">
<title>cluster_AppModule</title>
<polygon fill="none" stroke="#000000" stroke-dasharray="1,5" points="8,-70 8,-268 3741,-268 3741,-70 8,-70"/>
</g>
<g id="clust2" class="cluster">
<title>cluster_AppModule_declarations</title>
<polygon fill="none" stroke="#000000" points="126,-78 126,-130 3733,-130 3733,-78 126,-78"/>
</g>
<g id="clust29" class="cluster">
<title>cluster_AppModule_imports</title>
<polygon fill="none" stroke="#000000" points="16,-78 16,-130 118,-130 118,-78 16,-78"/>
</g>
<g id="clust31" class="cluster">
<title>cluster_AppModule_bootstrap</title>
<polygon fill="none" stroke="#000000" points="1804,-208 1804,-260 1928,-260 1928,-208 1804,-208"/>
</g>
<!-- AppComponent -->
<g id="node1" class="node">
<title>AppComponent</title>
<polygon fill="#ffffb3" stroke="#000000" points="3724.9399,-122 3619.0601,-122 3619.0601,-86 3724.9399,-86 3724.9399,-122"/>
<text text-anchor="middle" x="3672" y="-99.8" font-family="Times,serif" font-size="14.00" fill="#000000">AppComponent</text>
</g>
<!-- AppModule -->
<g id="node27" class="node">
<title>AppModule</title>
<polygon fill="#8dd3c7" stroke="#000000" points="1907.6571,-187 1904.6571,-191 1883.6571,-191 1880.6571,-187 1824.3429,-187 1824.3429,-151 1907.6571,-151 1907.6571,-187"/>
<text text-anchor="middle" x="1866" y="-164.8" font-family="Times,serif" font-size="14.00" fill="#000000">AppModule</text>
</g>
<!-- AppComponent&#45;&gt;AppModule -->
<g id="edge1" class="edge">
<title>AppComponent&#45;&gt;AppModule</title>
<path fill="none" stroke="#000000" d="M3672,-122.3802C3672,-146.2785 3672,-185 3672,-185 3672,-185 1917.9836,-185 1917.9836,-185"/>
<polygon fill="#000000" stroke="#000000" points="1917.9837,-181.5001 1907.9836,-185 1917.9836,-188.5001 1917.9837,-181.5001"/>
</g>
<!-- CerfComponent -->
<g id="node2" class="node">
<title>CerfComponent</title>
<polygon fill="#ffffb3" stroke="#000000" points="3601.205,-122 3494.795,-122 3494.795,-86 3601.205,-86 3601.205,-122"/>
<text text-anchor="middle" x="3548" y="-99.8" font-family="Times,serif" font-size="14.00" fill="#000000">CerfComponent</text>
</g>
<!-- CerfComponent&#45;&gt;AppModule -->
<g id="edge2" class="edge">
<title>CerfComponent&#45;&gt;AppModule</title>
<path fill="none" stroke="#000000" d="M3548,-122.0908C3548,-145.1328 3548,-182 3548,-182 3548,-182 1917.9974,-182 1917.9974,-182"/>
<polygon fill="#000000" stroke="#000000" points="1917.9974,-178.5001 1907.9974,-182 1917.9974,-185.5001 1917.9974,-178.5001"/>
</g>
<!-- CerfListComponent -->
<g id="node3" class="node">
<title>CerfListComponent</title>
<polygon fill="#ffffb3" stroke="#000000" points="3476.9832,-122 3349.0168,-122 3349.0168,-86 3476.9832,-86 3476.9832,-122"/>
<text text-anchor="middle" x="3413" y="-99.8" font-family="Times,serif" font-size="14.00" fill="#000000">CerfListComponent</text>
</g>
<!-- CerfListComponent&#45;&gt;AppModule -->
<g id="edge3" class="edge">
<title>CerfListComponent&#45;&gt;AppModule</title>
<path fill="none" stroke="#000000" d="M3413,-122.0109C3413,-144.4852 3413,-180 3413,-180 3413,-180 1917.7788,-180 1917.7788,-180"/>
<polygon fill="#000000" stroke="#000000" points="1917.7788,-176.5001 1907.7788,-180 1917.7787,-183.5001 1917.7788,-176.5001"/>
</g>
<!-- ClubAdministrationComponent -->
<g id="node4" class="node">
<title>ClubAdministrationComponent</title>
<polygon fill="#ffffb3" stroke="#000000" points="3330.8299,-122 3137.1701,-122 3137.1701,-86 3330.8299,-86 3330.8299,-122"/>
<text text-anchor="middle" x="3234" y="-99.8" font-family="Times,serif" font-size="14.00" fill="#000000">ClubAdministrationComponent</text>
</g>
<!-- ClubAdministrationComponent&#45;&gt;AppModule -->
<g id="edge4" class="edge">
<title>ClubAdministrationComponent&#45;&gt;AppModule</title>
<path fill="none" stroke="#000000" d="M3234,-122.0449C3234,-143.6623 3234,-177 3234,-177 3234,-177 1917.6885,-177 1917.6885,-177"/>
<polygon fill="#000000" stroke="#000000" points="1917.6885,-173.5001 1907.6885,-177 1917.6884,-180.5001 1917.6885,-173.5001"/>
</g>
<!-- ClubIDPipe -->
<g id="node5" class="node">
<title>ClubIDPipe</title>
<polygon fill="#ffffb3" stroke="#000000" points="3119.3823,-122 3036.6177,-122 3036.6177,-86 3119.3823,-86 3119.3823,-122"/>
<text text-anchor="middle" x="3078" y="-99.8" font-family="Times,serif" font-size="14.00" fill="#000000">ClubIDPipe</text>
</g>
<!-- ClubIDPipe&#45;&gt;AppModule -->
<g id="edge5" class="edge">
<title>ClubIDPipe&#45;&gt;AppModule</title>
<path fill="none" stroke="#000000" d="M3078,-122.2843C3078,-143.3211 3078,-175 3078,-175 3078,-175 1917.7198,-175 1917.7198,-175"/>
<polygon fill="#000000" stroke="#000000" points="1917.7198,-171.5001 1907.7198,-175 1917.7197,-178.5001 1917.7198,-171.5001"/>
</g>
<!-- ClubsComponent -->
<g id="node6" class="node">
<title>ClubsComponent</title>
<polygon fill="#ffffb3" stroke="#000000" points="3019.0042,-122 2904.9958,-122 2904.9958,-86 3019.0042,-86 3019.0042,-122"/>
<text text-anchor="middle" x="2962" y="-99.8" font-family="Times,serif" font-size="14.00" fill="#000000">ClubsComponent</text>
</g>
<!-- ClubsComponent&#45;&gt;AppModule -->
<g id="edge6" class="edge">
<title>ClubsComponent&#45;&gt;AppModule</title>
<path fill="none" stroke="#000000" d="M2962,-122.2228C2962,-142.3652 2962,-172 2962,-172 2962,-172 1917.959,-172 1917.959,-172"/>
<polygon fill="#000000" stroke="#000000" points="1917.959,-168.5001 1907.959,-172 1917.9589,-175.5001 1917.959,-168.5001"/>
</g>
<!-- ConfirmDialogComponent -->
<g id="node7" class="node">
<title>ConfirmDialogComponent</title>
<polygon fill="#ffffb3" stroke="#000000" points="2887.3738,-122 2720.6262,-122 2720.6262,-86 2887.3738,-86 2887.3738,-122"/>
<text text-anchor="middle" x="2804" y="-99.8" font-family="Times,serif" font-size="14.00" fill="#000000">ConfirmDialogComponent</text>
</g>
<!-- ConfirmDialogComponent&#45;&gt;AppModule -->
<g id="edge7" class="edge">
<title>ConfirmDialogComponent&#45;&gt;AppModule</title>
<path fill="none" stroke="#000000" d="M2804,-122.1061C2804,-141.3391 2804,-169 2804,-169 2804,-169 1917.8201,-169 1917.8201,-169"/>
<polygon fill="#000000" stroke="#000000" points="1917.8201,-165.5001 1907.8201,-169 1917.82,-172.5001 1917.8201,-165.5001"/>
</g>
<!-- DialogNewClub -->
<g id="node8" class="node">
<title>DialogNewClub</title>
<polygon fill="#ffffb3" stroke="#000000" points="2702.7577,-122 2595.2423,-122 2595.2423,-86 2702.7577,-86 2702.7577,-122"/>
<text text-anchor="middle" x="2649" y="-99.8" font-family="Times,serif" font-size="14.00" fill="#000000">DialogNewClub</text>
</g>
<!-- DialogNewClub&#45;&gt;AppModule -->
<g id="edge8" class="edge">
<title>DialogNewClub&#45;&gt;AppModule</title>
<path fill="none" stroke="#000000" d="M2649,-122.2222C2649,-140.8285 2649,-167 2649,-167 2649,-167 1917.8207,-167 1917.8207,-167"/>
<polygon fill="#000000" stroke="#000000" points="1917.8207,-163.5001 1907.8207,-167 1917.8206,-170.5001 1917.8207,-163.5001"/>
</g>
<!-- DialogNewMember -->
<g id="node9" class="node">
<title>DialogNewMember</title>
<polygon fill="#ffffb3" stroke="#000000" points="2576.9552,-122 2449.0448,-122 2449.0448,-86 2576.9552,-86 2576.9552,-122"/>
<text text-anchor="middle" x="2513" y="-99.8" font-family="Times,serif" font-size="14.00" fill="#000000">DialogNewMember</text>
</g>
<!-- DialogNewMember&#45;&gt;AppModule -->
<g id="edge9" class="edge">
<title>DialogNewMember&#45;&gt;AppModule</title>
<path fill="none" stroke="#000000" d="M2513,-122.002C2513,-139.6754 2513,-164 2513,-164 2513,-164 1917.953,-164 1917.953,-164"/>
<polygon fill="#000000" stroke="#000000" points="1917.953,-160.5001 1907.953,-164 1917.9529,-167.5001 1917.953,-160.5001"/>
</g>
<!-- DivisionIDPipe -->
<g id="node10" class="node">
<title>DivisionIDPipe</title>
<polygon fill="#ffffb3" stroke="#000000" points="2430.8781,-122 2327.1219,-122 2327.1219,-86 2430.8781,-86 2430.8781,-122"/>
<text text-anchor="middle" x="2379" y="-99.8" font-family="Times,serif" font-size="14.00" fill="#000000">DivisionIDPipe</text>
</g>
<!-- DivisionIDPipe&#45;&gt;AppModule -->
<g id="edge10" class="edge">
<title>DivisionIDPipe&#45;&gt;AppModule</title>
<path fill="none" stroke="#000000" d="M2379,-122.0336C2379,-139.0597 2379,-162 2379,-162 2379,-162 1917.9809,-162 1917.9809,-162"/>
<polygon fill="#000000" stroke="#000000" points="1917.981,-158.5001 1907.9809,-162 1917.9809,-165.5001 1917.981,-158.5001"/>
</g>
<!-- DivisionsComponent -->
<g id="node11" class="node">
<title>DivisionsComponent</title>
<polygon fill="#ffffb3" stroke="#000000" points="2309.5,-122 2174.5,-122 2174.5,-86 2309.5,-86 2309.5,-122"/>
<text text-anchor="middle" x="2242" y="-99.8" font-family="Times,serif" font-size="14.00" fill="#000000">DivisionsComponent</text>
</g>
<!-- DivisionsComponent&#45;&gt;AppModule -->
<g id="edge11" class="edge">
<title>DivisionsComponent&#45;&gt;AppModule</title>
<path fill="none" stroke="#000000" d="M2242,-122.0091C2242,-138.0494 2242,-159 2242,-159 2242,-159 1917.6752,-159 1917.6752,-159"/>
<polygon fill="#000000" stroke="#000000" points="1917.6752,-155.5001 1907.6752,-159 1917.6752,-162.5001 1917.6752,-155.5001"/>
</g>
<!-- EqualValidator -->
<g id="node12" class="node">
<title>EqualValidator</title>
<polygon fill="#ffffb3" stroke="#000000" points="2156.5271,-122 2055.4729,-122 2055.4729,-86 2156.5271,-86 2156.5271,-122"/>
<text text-anchor="middle" x="2106" y="-99.8" font-family="Times,serif" font-size="14.00" fill="#000000">EqualValidator</text>
</g>
<!-- EqualValidator&#45;&gt;AppModule -->
<g id="edge12" class="edge">
<title>EqualValidator&#45;&gt;AppModule</title>
<path fill="none" stroke="#000000" d="M2106,-122.2396C2106,-137.5706 2106,-157 2106,-157 2106,-157 1917.8048,-157 1917.8048,-157"/>
<polygon fill="#000000" stroke="#000000" points="1917.8048,-153.5001 1907.8048,-157 1917.8048,-160.5001 1917.8048,-153.5001"/>
</g>
<!-- FAQsComponent -->
<g id="node13" class="node">
<title>FAQsComponent</title>
<polygon fill="#ffffb3" stroke="#000000" points="2037.273,-122 1922.727,-122 1922.727,-86 2037.273,-86 2037.273,-122"/>
<text text-anchor="middle" x="1980" y="-99.8" font-family="Times,serif" font-size="14.00" fill="#000000">FAQsComponent</text>
</g>
<!-- FAQsComponent&#45;&gt;AppModule -->
<g id="edge13" class="edge">
<title>FAQsComponent&#45;&gt;AppModule</title>
<path fill="none" stroke="#000000" d="M1980,-122.0511C1980,-136.373 1980,-154 1980,-154 1980,-154 1917.8021,-154 1917.8021,-154"/>
<polygon fill="#000000" stroke="#000000" points="1917.8021,-150.5001 1907.8021,-154 1917.802,-157.5001 1917.8021,-150.5001"/>
</g>
<!-- InfoDialog -->
<g id="node14" class="node">
<title>InfoDialog</title>
<polygon fill="#ffffb3" stroke="#000000" points="1904.9248,-122 1827.0752,-122 1827.0752,-86 1904.9248,-86 1904.9248,-122"/>
<text text-anchor="middle" x="1866" y="-99.8" font-family="Times,serif" font-size="14.00" fill="#000000">InfoDialog</text>
</g>
<!-- InfoDialog&#45;&gt;AppModule -->
<g id="edge14" class="edge">
<title>InfoDialog&#45;&gt;AppModule</title>
<path fill="none" stroke="#000000" d="M1866,-122.1061C1866,-122.1061 1866,-140.991 1866,-140.991"/>
<polygon fill="#000000" stroke="#000000" points="1862.5001,-140.9909 1866,-150.991 1869.5001,-140.991 1862.5001,-140.9909"/>
</g>
<!-- LoginComponent -->
<g id="node15" class="node">
<title>LoginComponent</title>
<polygon fill="#ffffb3" stroke="#000000" points="1809.2758,-122 1694.7242,-122 1694.7242,-86 1809.2758,-86 1809.2758,-122"/>
<text text-anchor="middle" x="1752" y="-99.8" font-family="Times,serif" font-size="14.00" fill="#000000">LoginComponent</text>
</g>
<!-- LoginComponent&#45;&gt;AppModule -->
<g id="edge15" class="edge">
<title>LoginComponent&#45;&gt;AppModule</title>
<path fill="none" stroke="#000000" d="M1752,-122.0511C1752,-136.373 1752,-154 1752,-154 1752,-154 1814.1979,-154 1814.1979,-154"/>
<polygon fill="#000000" stroke="#000000" points="1814.198,-157.5001 1824.1979,-154 1814.1979,-150.5001 1814.198,-157.5001"/>
</g>
<!-- MemberIDPipe -->
<g id="node16" class="node">
<title>MemberIDPipe</title>
<polygon fill="#ffffb3" stroke="#000000" points="1676.58,-122 1573.42,-122 1573.42,-86 1676.58,-86 1676.58,-122"/>
<text text-anchor="middle" x="1625" y="-99.8" font-family="Times,serif" font-size="14.00" fill="#000000">MemberIDPipe</text>
</g>
<!-- MemberIDPipe&#45;&gt;AppModule -->
<g id="edge16" class="edge">
<title>MemberIDPipe&#45;&gt;AppModule</title>
<path fill="none" stroke="#000000" d="M1625,-122.2396C1625,-137.5706 1625,-157 1625,-157 1625,-157 1814.2961,-157 1814.2961,-157"/>
<polygon fill="#000000" stroke="#000000" points="1814.2962,-160.5001 1824.2961,-157 1814.2961,-153.5001 1814.2962,-160.5001"/>
</g>
<!-- MrfComponent -->
<g id="node17" class="node">
<title>MrfComponent</title>
<polygon fill="#ffffb3" stroke="#000000" points="1555.5982,-122 1452.4018,-122 1452.4018,-86 1555.5982,-86 1555.5982,-122"/>
<text text-anchor="middle" x="1504" y="-99.8" font-family="Times,serif" font-size="14.00" fill="#000000">MrfComponent</text>
</g>
<!-- MrfComponent&#45;&gt;AppModule -->
<g id="edge17" class="edge">
<title>MrfComponent&#45;&gt;AppModule</title>
<path fill="none" stroke="#000000" d="M1504,-122.0091C1504,-138.0494 1504,-159 1504,-159 1504,-159 1814.1204,-159 1814.1204,-159"/>
<polygon fill="#000000" stroke="#000000" points="1814.1204,-162.5001 1824.1204,-159 1814.1203,-155.5001 1814.1204,-162.5001"/>
</g>
<!-- MrfDistrictComponent -->
<g id="node18" class="node">
<title>MrfDistrictComponent</title>
<polygon fill="#ffffb3" stroke="#000000" points="1434.587,-122 1289.413,-122 1289.413,-86 1434.587,-86 1434.587,-122"/>
<text text-anchor="middle" x="1362" y="-99.8" font-family="Times,serif" font-size="14.00" fill="#000000">MrfDistrictComponent</text>
</g>
<!-- MrfDistrictComponent&#45;&gt;AppModule -->
<g id="edge18" class="edge">
<title>MrfDistrictComponent&#45;&gt;AppModule</title>
<path fill="none" stroke="#000000" d="M1362,-122.0336C1362,-139.0597 1362,-162 1362,-162 1362,-162 1814.3268,-162 1814.3268,-162"/>
<polygon fill="#000000" stroke="#000000" points="1814.3268,-165.5001 1824.3268,-162 1814.3267,-158.5001 1814.3268,-165.5001"/>
</g>
<!-- MrfDivisionComponent -->
<g id="node19" class="node">
<title>MrfDivisionComponent</title>
<polygon fill="#ffffb3" stroke="#000000" points="1271.8215,-122 1120.1785,-122 1120.1785,-86 1271.8215,-86 1271.8215,-122"/>
<text text-anchor="middle" x="1196" y="-99.8" font-family="Times,serif" font-size="14.00" fill="#000000">MrfDivisionComponent</text>
</g>
<!-- MrfDivisionComponent&#45;&gt;AppModule -->
<g id="edge19" class="edge">
<title>MrfDivisionComponent&#45;&gt;AppModule</title>
<path fill="none" stroke="#000000" d="M1196,-122.002C1196,-139.6754 1196,-164 1196,-164 1196,-164 1814.3416,-164 1814.3416,-164"/>
<polygon fill="#000000" stroke="#000000" points="1814.3417,-167.5001 1824.3416,-164 1814.3416,-160.5001 1814.3417,-167.5001"/>
</g>
<!-- MrfListComponent -->
<g id="node20" class="node">
<title>MrfListComponent</title>
<polygon fill="#ffffb3" stroke="#000000" points="1102.3767,-122 977.6233,-122 977.6233,-86 1102.3767,-86 1102.3767,-122"/>
<text text-anchor="middle" x="1040" y="-99.8" font-family="Times,serif" font-size="14.00" fill="#000000">MrfListComponent</text>
</g>
<!-- MrfListComponent&#45;&gt;AppModule -->
<g id="edge20" class="edge">
<title>MrfListComponent&#45;&gt;AppModule</title>
<path fill="none" stroke="#000000" d="M1040,-122.2222C1040,-140.8285 1040,-167 1040,-167 1040,-167 1814.1881,-167 1814.1881,-167"/>
<polygon fill="#000000" stroke="#000000" points="1814.1882,-170.5001 1824.1881,-167 1814.1881,-163.5001 1814.1882,-170.5001"/>
</g>
<!-- MrfSecretaryComponent -->
<g id="node21" class="node">
<title>MrfSecretaryComponent</title>
<polygon fill="#ffffb3" stroke="#000000" points="959.951,-122 804.049,-122 804.049,-86 959.951,-86 959.951,-122"/>
<text text-anchor="middle" x="882" y="-99.8" font-family="Times,serif" font-size="14.00" fill="#000000">MrfSecretaryComponent</text>
</g>
<!-- MrfSecretaryComponent&#45;&gt;AppModule -->
<g id="edge21" class="edge">
<title>MrfSecretaryComponent&#45;&gt;AppModule</title>
<path fill="none" stroke="#000000" d="M882,-122.1061C882,-141.3391 882,-169 882,-169 882,-169 1814.0335,-169 1814.0335,-169"/>
<polygon fill="#000000" stroke="#000000" points="1814.0336,-172.5001 1824.0335,-169 1814.0335,-165.5001 1814.0336,-172.5001"/>
</g>
<!-- MyCerfsComponent -->
<g id="node22" class="node">
<title>MyCerfsComponent</title>
<polygon fill="#ffffb3" stroke="#000000" points="785.594,-122 654.406,-122 654.406,-86 785.594,-86 785.594,-122"/>
<text text-anchor="middle" x="720" y="-99.8" font-family="Times,serif" font-size="14.00" fill="#000000">MyCerfsComponent</text>
</g>
<!-- MyCerfsComponent&#45;&gt;AppModule -->
<g id="edge22" class="edge">
<title>MyCerfsComponent&#45;&gt;AppModule</title>
<path fill="none" stroke="#000000" d="M720,-122.2228C720,-142.3652 720,-172 720,-172 720,-172 1814.1958,-172 1814.1958,-172"/>
<polygon fill="#000000" stroke="#000000" points="1814.1958,-175.5001 1824.1958,-172 1814.1958,-168.5001 1814.1958,-175.5001"/>
</g>
<!-- ProfileComponent -->
<g id="node23" class="node">
<title>ProfileComponent</title>
<polygon fill="#ffffb3" stroke="#000000" points="636.9328,-122 517.0672,-122 517.0672,-86 636.9328,-86 636.9328,-122"/>
<text text-anchor="middle" x="577" y="-99.8" font-family="Times,serif" font-size="14.00" fill="#000000">ProfileComponent</text>
</g>
<!-- ProfileComponent&#45;&gt;AppModule -->
<g id="edge23" class="edge">
<title>ProfileComponent&#45;&gt;AppModule</title>
<path fill="none" stroke="#000000" d="M577,-122.2843C577,-143.3211 577,-175 577,-175 577,-175 1814.2098,-175 1814.2098,-175"/>
<polygon fill="#000000" stroke="#000000" points="1814.2098,-178.5001 1824.2098,-175 1814.2097,-171.5001 1814.2098,-178.5001"/>
</g>
<!-- SettingsComponent -->
<g id="node24" class="node">
<title>SettingsComponent</title>
<polygon fill="#ffffb3" stroke="#000000" points="499.4468,-122 372.5532,-122 372.5532,-86 499.4468,-86 499.4468,-122"/>
<text text-anchor="middle" x="436" y="-99.8" font-family="Times,serif" font-size="14.00" fill="#000000">SettingsComponent</text>
</g>
<!-- SettingsComponent&#45;&gt;AppModule -->
<g id="edge24" class="edge">
<title>SettingsComponent&#45;&gt;AppModule</title>
<path fill="none" stroke="#000000" d="M436,-122.0449C436,-143.6623 436,-177 436,-177 436,-177 1813.9773,-177 1813.9773,-177"/>
<polygon fill="#000000" stroke="#000000" points="1813.9773,-180.5001 1823.9773,-177 1813.9772,-173.5001 1813.9773,-180.5001"/>
</g>
<!-- SignupComponent -->
<g id="node25" class="node">
<title>SignupComponent</title>
<polygon fill="#ffffb3" stroke="#000000" points="354.5056,-122 233.4944,-122 233.4944,-86 354.5056,-86 354.5056,-122"/>
<text text-anchor="middle" x="294" y="-99.8" font-family="Times,serif" font-size="14.00" fill="#000000">SignupComponent</text>
</g>
<!-- SignupComponent&#45;&gt;AppModule -->
<g id="edge25" class="edge">
<title>SignupComponent&#45;&gt;AppModule</title>
<path fill="none" stroke="#000000" d="M294,-122.0109C294,-144.4852 294,-180 294,-180 294,-180 1813.9528,-180 1813.9528,-180"/>
<polygon fill="#000000" stroke="#000000" points="1813.9528,-183.5001 1823.9528,-180 1813.9528,-176.5001 1813.9528,-183.5001"/>
</g>
<!-- TagsDialog -->
<g id="node26" class="node">
<title>TagsDialog</title>
<polygon fill="#ffffb3" stroke="#000000" points="215.8148,-122 134.1852,-122 134.1852,-86 215.8148,-86 215.8148,-122"/>
<text text-anchor="middle" x="175" y="-99.8" font-family="Times,serif" font-size="14.00" fill="#000000">TagsDialog</text>
</g>
<!-- TagsDialog&#45;&gt;AppModule -->
<g id="edge26" class="edge">
<title>TagsDialog&#45;&gt;AppModule</title>
<path fill="none" stroke="#000000" d="M175,-122.0908C175,-145.1328 175,-182 175,-182 175,-182 1814.1998,-182 1814.1998,-182"/>
<polygon fill="#000000" stroke="#000000" points="1814.1998,-185.5001 1824.1998,-182 1814.1997,-178.5001 1814.1998,-185.5001"/>
</g>
<!-- AppComponent  -->
<g id="node29" class="node">
<title>AppComponent </title>
<polygon fill="#80b1d3" stroke="#000000" points="1920.439,-252 1811.561,-252 1811.561,-216 1920.439,-216 1920.439,-252"/>
<text text-anchor="middle" x="1866" y="-229.8" font-family="Times,serif" font-size="14.00" fill="#000000">AppComponent </text>
</g>
<!-- AppModule&#45;&gt;AppComponent  -->
<g id="edge28" class="edge">
<title>AppModule&#45;&gt;AppComponent </title>
<path fill="none" stroke="#000000" stroke-dasharray="1,5" d="M1866,-187.1061C1866,-187.1061 1866,-205.991 1866,-205.991"/>
<polygon fill="#000000" stroke="#000000" points="1862.5001,-205.9909 1866,-215.991 1869.5001,-205.991 1862.5001,-205.9909"/>
</g>
<!-- CoreModule -->
<g id="node28" class="node">
<title>CoreModule</title>
<polygon fill="#8dd3c7" stroke="#000000" points="110.2619,-122 107.2619,-126 86.2619,-126 83.2619,-122 23.7381,-122 23.7381,-86 110.2619,-86 110.2619,-122"/>
<text text-anchor="middle" x="67" y="-99.8" font-family="Times,serif" font-size="14.00" fill="#000000">CoreModule</text>
</g>
<!-- CoreModule&#45;&gt;AppModule -->
<g id="edge27" class="edge">
<title>CoreModule&#45;&gt;AppModule</title>
<path fill="none" stroke="#000000" d="M67,-122.3802C67,-146.2785 67,-185 67,-185 67,-185 1814.1791,-185 1814.1791,-185"/>
<polygon fill="#000000" stroke="#000000" points="1814.1791,-188.5001 1824.1791,-185 1814.1791,-181.5001 1814.1791,-188.5001"/>
</g>
</g>
</svg>
